<?xml version="1.0" encoding="utf-8"?>
<!-- Generator: Adobe Illustrator 24.0.2, SVG Export Plug-In . SVG Version: 6.00 Build 0)  -->
<svg version="1.1" id="Capa_1" xmlns="http://www.w3.org/2000/svg" xmlns:xlink="http://www.w3.org/1999/xlink" x="0px" y="0px"
	 viewBox="0 0 1200 1200" enable-background="new 0 0 1200 1200" xml:space="preserve">
<path fill="#A55B5B" d="M341.051,721.162c2.098,9.273-3.888,44.654,5.674,46.126c2.737,0.16,5.085-1.926,5.245-4.661
	c2.43-43.264,3.752-86.722,5.354-129.982c33.288,4.29,67.17,2.838,100.383-1.696c3.389,41.381,5.687,82.914,7.056,124.487
	c0.092,2.618,2.213,4.761,4.866,4.821c2.751,0.063,5.032-2.116,5.095-4.867c0.54-83.145,1.056-167.005-16.443-248.912
	c-7.631-26.948-18.668-74.035-55.953-67.32C322.95,478.391,342.979,645.539,341.051,721.162z M362.957,557.27
	c6.098-33.194,12.687-81.432,43.656-99.645c37.71-1.366,46.856,131.107,50.02,161.457c-32.772-2.952-66.056-5.538-98.723-0.218
	C358.9,598.32,360.285,577.553,362.957,557.27z M280.966,455.15c-20.846-36.547-73.256-25.787-91.766,6.941
	c-15.923,25.94-13.995,57.985-12.43,86.54c1.377,40.062-0.609,81.552,1.232,122.038c0.821,29.348-4.394,64.164,15.828,88.591
	l-0.019,0.018c23.687,21.734,61.025-2.523,74.557-25.35c28.107-51.559,16.727-122.198-22.671-164.998
	C287.654,550.56,306.67,494.075,280.966,455.15z M240.445,586.163c34.661,44.431,48.892,133.959-8.348,166.038
	c-9.532,4.399-22.877,8.801-31.104,0.175l-0.019,0.018c-15.057-22.186-9.083-55.296-8.501-81.282
	c0.328-29.646,0.703-59.208,2.115-88.943c12.089-0.165,23.719-2.306,34.863-6.304C233.447,578.852,237.162,582.318,240.445,586.163z
	 M267.789,523.409c-7.201,15.977-22.368,26.717-38.372,33.417c-10.511-5.685-22.443-9.517-34.674-7.421
	c-0.743-26.341-3.155-54.156,10.482-77.173C244.41,418.751,291.532,476.53,267.789,523.409z M672.12,649.731
	c3.695,32.906,7.369,67.057,27.362,95.539c16.352,26.507,53.75,38.188,73.978,9.704c31.812-48.496,39.151-110.194,40.066-166.796
	c-2.565-54.632,1.564-126.863-49.411-161.284c-48.621-20.077-75.382,39.424-81.258,77.986l0.025,0.006
	C670.597,551.871,667.321,601.351,672.12,649.731z M692.551,507.055l0.025,0.006c7.315-26.959,16.032-63.077,46.472-70.454
	c13.922-3.152,26.226,4.456,33.825,16.325c35.29,65.553,26.104,156.968,11.585,227.705c-6.203,21.464-12.636,43.921-25.79,62.116
	c-13.629,19.252-33.764,6.684-43.947-8.613C677.635,667.347,681.637,581.525,692.551,507.055z M605.069,436.023
	c6.092,0.005,6.261,9.621,0.267,9.906c-95.53-2.78-69.896,355.618,31.439,305.99c2.51-1.131,5.462-0.013,6.595,2.499
	c1.822,10.669-20.513,13.595-29.128,14.095c-57.516-4.683-74.814-81.352-82.648-128.29
	C526.012,575.334,513.695,441.35,605.069,436.023z M850.506,696.654c0.704,21.198,1.639,42.399,3.112,63.573
	c0.336,6.122,10.063,5.931,9.901-0.391c-0.121-60.745-0.57-129.121,3.017-189.756c4.951-40.836,2.687-88.689,23.655-124.525
	c52.002,27.933,9.88,394.127,100.096,313.259c24.97-38.88,17.907-145.544,16.153-193.361c-2.774-42.429-7.048-84.59-11.189-126.666
	c-0.264-2.645-2.575-4.66-5.253-4.501c-2.746,0.163-4.84,2.521-4.678,5.267c5.25,89.757,14.11,179.382,2.884,267.869
	c-2.131,13.865-2.973,29.552-11.75,41.008c-16.371,22.939-25.069-45.708-26.944-55.452c-11.136-73.83-5.285-148.971-23.699-222.034
	c-9.021-38.886-46.212-69.394-61.942-13.981C844.472,535.233,848.834,616.777,850.506,696.654z M890.485,445.371
	c0,0-0.027,0.006-0.032,0.007C890.483,445.364,890.497,445.367,890.485,445.371z M1097.135,797.499
	c25.945,4.115,52.286-18.118,52.849-44.313c0.082-1.3-0.149-3.33-0.614-4.74c-0.742-1.034-2.363-2.206-2.182-2.098
	c-9.224-10.268-12.887-24.181-18.654-36.631c-10.872-16.356-17.653,36.454-44.623,38.19c9.552-8.872,30.396-46.186,11.392-52.592
	c-15.63-2.086-31.135-4.977-46.602-8.166c-2.179-0.534-4.51-0.258-6.533,1.043c-12.449,10.095,16.28,22.953-8.667,59.686
	c-13.784,7.783-14.074,27.134-20.505,38.593c-1.616,2.354-1.955,2.796-3.904,2.988c-9.141-1.51-19.868-8.411-30.045-4.483
	c-19.425,2.283-33.978,40.294-52.531,26.695c-1.611-2.843-4.81-4.595-8.257-4.199c-4.602,0.529-7.904,4.688-7.375,9.29
	c1.47,12.793,1.153,26.47,2.76,40.81c2.971,13.196,35.118,11.586,46.129,7.897c9.047-2.715,14.658-11.372,23.254-13.484
	c-3.906,11.65-17.537,11.153-26.565,20.014c-9.227,8.849-22.661,38.3-8.18,45.965c13.153,6.868,29.251,8.81,42.885,9.752
	c11.964-0.73,13.168-18.077,19.166-26.278c3.055-6.596,3.449-9.085,11.985-11.747c18.53-5.105,16.513-27.724,17.073-41.723
	C1066.423,830.32,1052.737,783.514,1097.135,797.499z M1084.963,711.438c-1.729,13.013-7.387,25.386-15.75,35.56
	c-6.551-1.178-12.479-2.751-19.619-2.905c7.095-10.772,11.379-24.158,9.536-37.334
	C1067.677,708.674,1076.257,710.271,1084.963,711.438z M1025.465,863.071c-4.234,23.121-18.62-3.612-38.819,46.772
	c-10.121-0.876-19.144-1.949-28.036-5.542c-0.289-31.039,32.869-26.028,35.086-53.018c10.904,0.623,21.805,3.439,33.543,1.326
	C1026.537,856.337,1026.063,859.884,1025.465,863.071z M1070.107,781.935c-33.539,9.002-20.051,66.152-63.777,53.296
	c-42.203-9.62-40.286,22.209-76.195,14.083c-0.242-2.767-0.442-5.581-0.631-8.424c17.582,0.848,29.07-15.67,45.247-18.092
	c40.583,4.382,13.475-14.335-7.824-10.583c22.339-30.271,40.65,9.146,58.645-18.352c5.811-10.417,6.122-21.814,11.474-30.796
	c23.832-20.345,54.698,25.946,86.723-38.564c1.737,3.798,3.496,7.666,5.471,11.407c-6.419,17.937-23.429,28.46-41.162,33.118
	c-1.303,0.611-1.182,2.649,0.001,3.294c19.188,7.451,40.767-6.637,48.279-24.44c1.285,1.775,2.655,3.495,4.383,4.957
	c-2.038,16.76-17.416,31.346-34.343,31.788C1094.787,784.7,1082.693,778.586,1070.107,781.935z M57.536,438.71
	c3.255,6.874,1.476,18.754,8.778,23.52c3.789,1.733,8.264,0.067,9.997-3.72c1.615-3.875,7.934-7.326,13.448-7.937
	c-6.258,12.967-12.21,57.975,9.505,57.724c13.077-2.945,27.915-1.493,42.522,1.391c6.419,1.465,12.539-4.878,10.719-11.27
	c-11.985-70.653,59.465-55.537,59.784-97.906c1.685-0.538,4.542-0.943,5.775-0.049c13.167,14.185,31.444,13.525,42.55-3.218
	c3.663-4.812,7.628-11.555,12.994-13.982c1.318-0.487,1.735-0.677,2.431-0.24c6.855,4.164,16.124-2.86,13.737-10.673
	c-4.178-12.179-4.4-25.438-8.185-37.515c-11.76-14.597-24.345,15.793-54.167,6.486c44.279-25.568,26.163-55.226-13.906-69.036
	c-3.153,2.157-5.233,6.508-7.127,9.793c-18.727,43.77-61.334,38.774-68.335,76.591c-11.608,7.158-15.859,29.016-31.154,25.557
	c-5.255-1.39-10.995-3.363-17.47-2.582c-12.767,1.464-20.583,12.123-28.127,20.944C44.117,421.798,49.632,416.971,57.536,438.71z
	 M245.06,360.777c7.568,0.016,14.748-2.2,21.238-5.46c0.618,3.487,1.411,6.934,2.273,10.368
	c-19.62,4.42-21.713,41.631-40.303,25.664c-4.876-3.854-12.389-4.907-17.864-2.369c-2.616-10.132-8.597-20.341-3.733-29.695
	C219.088,352.16,231.855,361.001,245.06,360.777z M154.994,383.77c-5.304-33.931,7.921-39.583,33.241-57.012
	c-11.723,13.376-21.424,33.243-16.881,51.333c0.441,1.695,2.892,2.027,3.753,0.491c15.347-45.465,49.693-54.371,55.053-85.769
	c40.863,30.807-43.071,38.929-39.936,72.886c-2.123,16.479,14.615,32.918,1.5,45.493c-32.182,14.425-61.461,38.914-58.837,78.281
	c-9.518-1.392-19.036-1.955-28.779-0.969C92.946,434.117,159.963,434.432,154.994,383.77z M75.612,414.925
	c4.833-5.216,10.225-13.082,16.187-14.282c21.128,4.943,35.285,3.177,45.493-17.992c3.77,27.852-24.307,33.126-39.129,53.385
	c-7.847,1.928-15.321,0.992-22.815,4.195c-1.042-6.548-2.517-12.713-5.345-19.061L75.612,414.925z"/>
</svg>
